<svg width="3597" height="3597" viewBox="0 0 3597 3597" fill="none" xmlns="http://www.w3.org/2000/svg">
<rect width="1081" height="1710" fill="#B31E34"/>
<rect x="1264" y="1086" width="1086" height="1697" transform="rotate(-90 1264 1086)" fill="#871538"/>
<rect x="1264" y="1710" width="452" height="1697" transform="rotate(-90 1264 1710)" fill="#871538"/>
<rect x="3151" width="446" height="1710" fill="#871538"/>
<rect x="636" y="1886" width="446" height="1711" fill="url(#paint0_linear_230_217)"/>
<rect y="3145" width="446" height="452" fill="url(#paint1_linear_230_217)"/>
<rect x="1264" y="3145" width="446" height="452" fill="#B3B3B2"/>
<rect x="1264" y="2516" width="446" height="452" fill="#B3B3B2"/>
<rect x="1264" y="1886" width="446" height="452" fill="#B3B3B2"/>
<rect x="1892" y="1886" width="446" height="1082" fill="#B3B3B2"/>
<rect x="2515" y="1886" width="1082" height="1082" fill="#B3B3B2"/>
<rect x="1892" y="3145" width="1705" height="452" fill="#B3B3B2"/>
<rect y="1886" width="446" height="1076" fill="url(#paint2_linear_230_217)"/>
<defs>
<linearGradient id="paint0_linear_230_217" x1="859" y1="1886" x2="859" y2="3597" gradientUnits="userSpaceOnUse">
<stop offset="0.15276" stop-color="#CB9D5E"/>
<stop offset="1" stop-color="#965724"/>
</linearGradient>
<linearGradient id="paint1_linear_230_217" x1="223" y1="1873.62" x2="223" y2="3597" gradientUnits="userSpaceOnUse">
<stop offset="0.15276" stop-color="#CB9D5E"/>
<stop offset="1" stop-color="#965724"/>
</linearGradient>
<linearGradient id="paint2_linear_230_217" x1="223" y1="1886" x2="223.5" y2="3593.5" gradientUnits="userSpaceOnUse">
<stop offset="0.15276" stop-color="#CB9D5E"/>
<stop offset="1" stop-color="#965724"/>
</linearGradient>
</defs>
</svg>
