<svg width="3597" height="3601" viewBox="0 0 3597 3601" fill="none" xmlns="http://www.w3.org/2000/svg">
<rect y="4" width="1081" height="1710" fill="#B31E34"/>
<rect x="1264" y="1090" width="1086" height="1697" transform="rotate(-90 1264 1090)" fill="#871538"/>
<rect x="1264" y="1714" width="452" height="1697" transform="rotate(-90 1264 1714)" fill="#871538"/>
<rect x="3151" y="4" width="446" height="1710" fill="#871538"/>
<rect x="636" y="1890" width="446" height="1711" fill="url(#paint0_linear_235_4)"/>
<rect y="3149" width="446" height="452" fill="url(#paint1_linear_235_4)"/>
<rect x="1264" y="3149" width="446" height="452" fill="#B3B3B2"/>
<rect x="1264" y="2520" width="446" height="452" fill="#B3B3B2"/>
<rect x="1264" y="1890" width="446" height="452" fill="#B3B3B2"/>
<rect x="1892" y="1890" width="446" height="1082" fill="#B3B3B2"/>
<rect x="2515" y="1890" width="1082" height="1082" fill="#B3B3B2"/>
<rect x="1892" y="3149" width="1705" height="452" fill="#B3B3B2"/>
<rect y="1890" width="446" height="1076" fill="url(#paint2_linear_235_4)"/>
<defs>
<linearGradient id="paint0_linear_235_4" x1="859" y1="1890" x2="859" y2="3601" gradientUnits="userSpaceOnUse">
<stop offset="0.15276" stop-color="#CB9D5E"/>
<stop offset="1" stop-color="#965724"/>
</linearGradient>
<linearGradient id="paint1_linear_235_4" x1="223" y1="1877.62" x2="223" y2="3601" gradientUnits="userSpaceOnUse">
<stop offset="0.15276" stop-color="#CB9D5E"/>
<stop offset="1" stop-color="#965724"/>
</linearGradient>
<linearGradient id="paint2_linear_235_4" x1="223" y1="1890" x2="223.5" y2="3597.5" gradientUnits="userSpaceOnUse">
<stop offset="0.15276" stop-color="#CB9D5E"/>
<stop offset="1" stop-color="#965724"/>
</linearGradient>
</defs>
</svg>
