<svg width="9055" height="3745" viewBox="0 0 9055 3745" fill="none" xmlns="http://www.w3.org/2000/svg">
<rect y="4" width="1081" height="1710" fill="#B31E34"/>
<rect x="1264" y="1090" width="1086" height="1697" transform="rotate(-90 1264 1090)" fill="#871538"/>
<rect x="1264" y="1714" width="452" height="1697" transform="rotate(-90 1264 1714)" fill="#871538"/>
<rect x="3151" y="4" width="446" height="1710" fill="#871538"/>
<rect x="636" y="1890" width="446" height="1711" fill="url(#paint0_linear_235_7)"/>
<rect y="3149" width="446" height="452" fill="url(#paint1_linear_235_7)"/>
<rect x="1264" y="3149" width="446" height="452" fill="#B3B3B2"/>
<rect x="1264" y="2520" width="446" height="452" fill="#B3B3B2"/>
<rect x="1264" y="1890" width="446" height="452" fill="#B3B3B2"/>
<rect x="1892" y="1890" width="446" height="1082" fill="#B3B3B2"/>
<rect x="2515" y="1890" width="1082" height="1082" fill="#B3B3B2"/>
<rect x="1892" y="3149" width="1705" height="452" fill="#B3B3B2"/>
<rect y="1890" width="446" height="1076" fill="url(#paint2_linear_235_7)"/>
<path d="M4312.9 58.8H4352L4429.28 288.8L4500.12 58.8H4538.76L4447.68 335.26C4431.58 384.48 4412.72 397.82 4386.04 397.82C4371.32 397.82 4363.04 395.98 4357.98 393.68V360.56C4363.96 363.78 4374.08 364.7 4382.36 364.7C4395.24 364.7 4403.06 358.72 4410.42 333.42L4312.9 58.8ZM4553.38 144.36H4710.24V390H4675.28V173.8H4588.34V390H4553.38V144.36ZM4856.26 167.36C4813.48 167.36 4809.8 223.94 4809.8 266.72C4809.8 313.64 4812.56 367 4856.72 367C4893.06 367 4904.56 329.28 4904.56 263.04C4904.56 230.84 4900.88 167.36 4856.26 167.36ZM4809.8 144.36V171.96H4810.26C4821.3 148.96 4843.38 137.92 4860.4 137.92C4922.5 137.92 4940.9 194.5 4940.9 263.04C4940.9 337.56 4924.34 396.44 4862.7 396.44C4837.86 396.44 4823.14 384.48 4809.8 364.7V475.56H4774.84V144.36H4809.8ZM5096.59 256.14C5060.25 277.3 5018.85 280.06 5018.85 327.44C5018.85 349.06 5028.05 365.16 5051.51 365.16C5087.85 365.16 5096.59 340.78 5096.59 315.48V256.14ZM5023.45 210.6H4992.17C4992.17 160 5017.01 137.92 5063.01 137.92C5112.23 137.92 5131.55 167.36 5131.55 200.48V345.38C5131.55 356.88 5135.69 365.16 5144.89 365.16C5147.19 365.16 5150.87 364.7 5152.71 364.24V390C5150.41 391.38 5144.43 392.76 5138.45 392.76C5117.29 392.76 5106.25 390 5100.73 356.88H5099.81C5091.53 378.5 5068.99 396.44 5045.53 396.44C5002.75 396.44 4982.51 373.44 4982.51 328.82C4982.51 285.12 5000.91 269.48 5043.69 252.92C5059.79 246.94 5083.71 236.36 5087.39 234.52C5096.13 230.38 5096.59 217.96 5096.59 205.54C5096.59 177.48 5087.39 167.36 5059.33 167.36C5033.11 167.36 5023.45 182.08 5023.45 210.6ZM5230.72 173.8V246.02H5267.52C5294.2 246.02 5306.16 235.44 5306.16 208.76C5306.16 184.84 5294.2 173.8 5268.9 173.8H5230.72ZM5230.72 275.46V360.56H5271.66C5303.86 360.56 5312.14 346.76 5312.14 317.78C5312.14 289.26 5297.42 275.46 5271.2 275.46H5230.72ZM5195.76 390V144.36H5275.34C5312.14 144.36 5341.58 166.9 5341.58 202.78C5341.58 234.52 5325.48 255.22 5303.4 261.2V262.12C5330.54 268.56 5347.56 289.26 5347.56 323.3C5347.56 365.62 5319.04 390 5286.84 390H5195.76ZM5416.65 144.36H5561.55V390H5526.59V173.8H5450.23V271.32C5450.23 342.16 5441.03 392.3 5396.87 392.3C5387.67 392.3 5383.07 391.84 5375.71 389.08V361.48C5380.31 362.4 5384.91 362.86 5390.89 362.86C5409.75 362.86 5416.65 347.68 5416.65 268.56V144.36ZM5734.67 257.06V173.8H5696.49C5663.83 173.8 5653.25 188.06 5653.25 215.66C5653.25 242.34 5664.75 257.06 5695.11 257.06H5734.67ZM5734.67 286.5H5696.95L5646.81 390H5608.63L5661.07 282.82C5633.93 272.7 5616.91 246.48 5616.91 214.28C5616.91 171.96 5645.43 144.36 5684.99 144.36H5769.63V390H5734.67V286.5ZM5869.06 144.36V246.02H5911.38C5911.38 181.16 5942.66 137.92 5999.24 137.92C6059.96 137.92 6087.56 184.38 6087.56 258.9C6087.56 365.16 6053.52 396.44 5999.24 396.44C5949.56 396.44 5911.38 367 5911.38 275.46H5869.06V390H5834.1V144.36H5869.06ZM5999.24 167.36C5963.82 167.36 5947.72 195.42 5947.72 269.94C5947.72 327.9 5958.76 367 5999.24 367C6041.1 367 6051.22 327.9 6051.22 269.94C6051.22 195.42 6036.04 167.36 5999.24 167.36ZM6177.67 144.36V360.56H6257.71V144.36H6292.67V360.56H6372.71V144.36H6407.67V360.56H6431.59V456.7H6399.39V390H6142.71V144.36H6177.67ZM6573.17 256.14C6536.83 277.3 6495.43 280.06 6495.43 327.44C6495.43 349.06 6504.63 365.16 6528.09 365.16C6564.43 365.16 6573.17 340.78 6573.17 315.48V256.14ZM6500.03 210.6H6468.75C6468.75 160 6493.59 137.92 6539.59 137.92C6588.81 137.92 6608.13 167.36 6608.13 200.48V345.38C6608.13 356.88 6612.27 365.16 6621.47 365.16C6623.77 365.16 6627.45 364.7 6629.29 364.24V390C6626.99 391.38 6621.01 392.76 6615.03 392.76C6593.87 392.76 6582.83 390 6577.31 356.88H6576.39C6568.11 378.5 6545.57 396.44 6522.11 396.44C6479.33 396.44 6459.09 373.44 6459.09 328.82C6459.09 285.12 6477.49 269.48 6520.27 252.92C6536.37 246.94 6560.29 236.36 6563.97 234.52C6572.71 230.38 6573.17 217.96 6573.17 205.54C6573.17 177.48 6563.97 167.36 6535.91 167.36C6509.69 167.36 6500.03 182.08 6500.03 210.6ZM6780.9 257.06V173.8H6742.72C6710.06 173.8 6699.48 188.06 6699.48 215.66C6699.48 242.34 6710.98 257.06 6741.34 257.06H6780.9ZM6780.9 286.5H6743.18L6693.04 390H6654.86L6707.3 282.82C6680.16 272.7 6663.14 246.48 6663.14 214.28C6663.14 171.96 6691.66 144.36 6731.22 144.36H6815.86V390H6780.9V286.5ZM7025.8 144.36V258.9L7110.9 144.36H7152.3L7076.4 240.04L7154.6 390H7113.66L7052.48 267.64L7025.8 302.6V390H6990.84V144.36H7025.8ZM7265.36 137.92C7326.08 137.92 7353.22 184.38 7353.22 266.72C7353.22 367 7319.18 396.44 7265.36 396.44C7212.46 396.44 7177.5 367 7177.5 266.26C7177.5 184.38 7204.64 137.92 7265.36 137.92ZM7265.36 167.36C7228.1 167.36 7213.84 195.42 7213.84 269.94C7213.84 327.9 7224.88 367 7265.36 367C7306.76 367 7316.88 327.9 7316.88 269.94C7316.88 195.42 7302.16 167.36 7265.36 167.36ZM7408.61 144.36H7462.89L7507.51 306.28C7510.73 317.78 7513.49 339.4 7516.25 355.96H7516.71C7519.47 339.4 7521.31 319.62 7524.99 306.28L7569.61 144.36H7623.89V390H7590.31V173.8H7589.85L7527.75 390H7504.29L7442.65 173.8H7442.19V390H7408.61V144.36ZM7688.47 144.36H7845.33V390H7810.37V173.8H7723.43V390H7688.47V144.36ZM8010.22 256.14C7973.88 277.3 7932.48 280.06 7932.48 327.44C7932.48 349.06 7941.68 365.16 7965.14 365.16C8001.48 365.16 8010.22 340.78 8010.22 315.48V256.14ZM7937.08 210.6H7905.8C7905.8 160 7930.64 137.92 7976.64 137.92C8025.86 137.92 8045.18 167.36 8045.18 200.48V345.38C8045.18 356.88 8049.32 365.16 8058.52 365.16C8060.82 365.16 8064.5 364.7 8066.34 364.24V390C8064.04 391.38 8058.06 392.76 8052.08 392.76C8030.92 392.76 8019.88 390 8014.36 356.88H8013.44C8005.16 378.5 7982.62 396.44 7959.16 396.44C7916.38 396.44 7896.14 373.44 7896.14 328.82C7896.14 285.12 7914.54 269.48 7957.32 252.92C7973.42 246.94 7997.34 236.36 8001.02 234.52C8009.76 230.38 8010.22 217.96 8010.22 205.54C8010.22 177.48 8001.02 167.36 7972.96 167.36C7946.74 167.36 7937.08 182.08 7937.08 210.6ZM8144.35 144.36V246.02H8231.29V144.36H8266.25V390H8231.29V275.46H8144.35V390H8109.39V144.36H8144.35ZM8330.86 144.36H8365.82V331.12C8365.82 339.86 8363.98 351.82 8362.14 360.56H8362.6C8364.9 349.06 8367.66 336.64 8369.96 331.12L8451.38 144.36H8493.7V390H8458.74V203.7C8458.74 196.8 8461.04 181.16 8462.42 173.34H8461.96C8460.58 181.62 8456.44 200.02 8454.6 203.7L8373.18 390H8330.86V144.36ZM8666.72 257.06V173.8H8628.54C8595.88 173.8 8585.3 188.06 8585.3 215.66C8585.3 242.34 8596.8 257.06 8627.16 257.06H8666.72ZM8666.72 286.5H8629L8578.86 390H8540.68L8593.12 282.82C8565.98 272.7 8548.96 246.48 8548.96 214.28C8548.96 171.96 8577.48 144.36 8617.04 144.36H8701.68V390H8666.72V286.5Z" fill="white"/>
<path d="M4319.2 1775L4499.6 1141.4H4592.88L4770.64 1775H4693.2L4643.04 1592.84H4443.28L4396.64 1775H4319.2ZM4627.2 1529.48L4545.36 1192.44H4543.6L4460 1529.48H4627.2ZM4871.81 1305.08H5149.01V1775H5082.13V1361.4H4936.05V1547.96C4936.05 1683.48 4918.45 1779.4 4833.97 1779.4C4816.37 1779.4 4807.57 1778.52 4793.49 1773.24V1720.44C4802.29 1722.2 4811.09 1723.08 4822.53 1723.08C4858.61 1723.08 4871.81 1694.04 4871.81 1542.68V1305.08ZM5324.44 1499.56H5482.84C5482.84 1428.28 5473.16 1349.08 5406.28 1349.08C5332.36 1349.08 5324.44 1437.08 5324.44 1499.56ZM5485.48 1618.36H5552.36C5552.36 1710.76 5509.24 1787.32 5410.68 1787.32C5312.12 1787.32 5254.92 1728.36 5254.92 1539.16C5254.92 1421.24 5281.32 1292.76 5405.4 1292.76C5538.28 1292.76 5552.36 1431.8 5552.36 1555.88H5324.44C5324.44 1663.24 5330.6 1731 5408.92 1731C5473.16 1731 5485.48 1672.04 5485.48 1618.36ZM5725.26 1305.08V1524.2L5888.06 1305.08H5967.26L5822.06 1488.12L5971.66 1775H5893.34L5776.3 1540.92L5725.26 1607.8V1775H5658.38V1305.08H5725.26ZM6177.39 1349.08C6097.31 1349.08 6084.99 1448.52 6084.99 1546.2C6084.99 1622.76 6089.39 1731 6174.75 1731C6246.91 1731 6253.95 1668.52 6257.47 1611.32H6320.83C6320.83 1700.2 6283.87 1787.32 6179.15 1787.32C6035.71 1787.32 6015.47 1667.64 6015.47 1546.2C6015.47 1422.12 6043.63 1292.76 6178.27 1292.76C6272.43 1292.76 6320.83 1364.92 6320.83 1452.04H6257.47C6257.47 1401 6240.75 1349.08 6177.39 1349.08ZM6606.47 1518.92C6536.95 1559.4 6457.75 1564.68 6457.75 1655.32C6457.75 1696.68 6475.35 1727.48 6520.23 1727.48C6589.75 1727.48 6606.47 1680.84 6606.47 1632.44V1518.92ZM6466.55 1431.8H6406.71C6406.71 1335 6454.23 1292.76 6542.23 1292.76C6636.39 1292.76 6673.35 1349.08 6673.35 1412.44V1689.64C6673.35 1711.64 6681.27 1727.48 6698.87 1727.48C6703.27 1727.48 6710.31 1726.6 6713.83 1725.72V1775C6709.43 1777.64 6697.99 1780.28 6686.55 1780.28C6646.07 1780.28 6624.95 1775 6614.39 1711.64H6612.63C6596.79 1753 6553.67 1787.32 6508.79 1787.32C6426.95 1787.32 6388.23 1743.32 6388.23 1657.96C6388.23 1574.36 6423.43 1544.44 6505.27 1512.76C6536.07 1501.32 6581.83 1481.08 6588.87 1477.56C6605.59 1469.64 6606.47 1445.88 6606.47 1422.12C6606.47 1368.44 6588.87 1349.08 6535.19 1349.08C6485.03 1349.08 6466.55 1377.24 6466.55 1431.8ZM6863.07 1305.08V1499.56H7029.39V1305.08H7096.27V1775H7029.39V1555.88H6863.07V1775H6796.19V1305.08H6863.07ZM7216.35 1718.68C7258.59 1630.68 7271.79 1578.76 7271.79 1459.96V1305.08H7528.75V1718.68H7573.63V1902.6H7512.03V1775H7237.47V1902.6H7175.87V1718.68H7216.35ZM7461.87 1718.68V1361.4H7336.03V1496.04C7336.03 1591.96 7321.07 1641.24 7284.99 1718.68H7461.87ZM7808.75 1349.08C7726.91 1349.08 7719.87 1457.32 7719.87 1539.16C7719.87 1628.92 7725.15 1731 7809.63 1731C7879.15 1731 7901.15 1658.84 7901.15 1532.12C7901.15 1470.52 7894.11 1349.08 7808.75 1349.08ZM7719.87 1305.08V1357.88H7720.75C7741.87 1313.88 7784.11 1292.76 7816.67 1292.76C7935.47 1292.76 7970.67 1401 7970.67 1532.12C7970.67 1674.68 7938.99 1787.32 7821.07 1787.32C7773.55 1787.32 7745.39 1764.44 7719.87 1726.6V1938.68H7652.99V1305.08H7719.87ZM8227.14 1292.76C8343.3 1292.76 8395.22 1381.64 8395.22 1539.16C8395.22 1731 8330.1 1787.32 8227.14 1787.32C8125.94 1787.32 8059.06 1731 8059.06 1538.28C8059.06 1381.64 8110.98 1292.76 8227.14 1292.76ZM8227.14 1349.08C8155.86 1349.08 8128.58 1402.76 8128.58 1545.32C8128.58 1656.2 8149.7 1731 8227.14 1731C8306.34 1731 8325.7 1656.2 8325.7 1545.32C8325.7 1402.76 8297.54 1349.08 8227.14 1349.08ZM8476.55 1530.36H8696.55V1590.2H8476.55V1530.36ZM4442.4 2041.4V2310.68H4684.4V2041.4H4754.8V2675H4684.4V2374.04H4442.4V2675H4372V2041.4H4442.4ZM4934.29 2399.56H5092.69C5092.69 2328.28 5083.01 2249.08 5016.13 2249.08C4942.21 2249.08 4934.29 2337.08 4934.29 2399.56ZM5095.33 2518.36H5162.21C5162.21 2610.76 5119.09 2687.32 5020.53 2687.32C4921.97 2687.32 4864.77 2628.36 4864.77 2439.16C4864.77 2321.24 4891.17 2192.76 5015.25 2192.76C5148.13 2192.76 5162.21 2331.8 5162.21 2455.88H4934.29C4934.29 2563.24 4940.45 2631 5018.77 2631C5083.01 2631 5095.33 2572.04 5095.33 2518.36ZM5335.11 2261.4V2399.56H5405.51C5456.55 2399.56 5479.43 2379.32 5479.43 2328.28C5479.43 2282.52 5456.55 2261.4 5408.15 2261.4H5335.11ZM5335.11 2455.88V2618.68H5413.43C5475.03 2618.68 5490.87 2592.28 5490.87 2536.84C5490.87 2482.28 5462.71 2455.88 5412.55 2455.88H5335.11ZM5268.23 2675V2205.08H5420.47C5490.87 2205.08 5547.19 2248.2 5547.19 2316.84C5547.19 2377.56 5516.39 2417.16 5474.15 2428.6V2430.36C5526.07 2442.68 5558.63 2482.28 5558.63 2547.4C5558.63 2628.36 5504.07 2675 5442.47 2675H5268.23ZM5808.72 2249.08C5728.64 2249.08 5716.32 2348.52 5716.32 2446.2C5716.32 2522.76 5720.72 2631 5806.08 2631C5878.24 2631 5885.28 2568.52 5888.8 2511.32H5952.16C5952.16 2600.2 5915.2 2687.32 5810.48 2687.32C5667.04 2687.32 5646.8 2567.64 5646.8 2446.2C5646.8 2322.12 5674.96 2192.76 5809.6 2192.76C5903.76 2192.76 5952.16 2264.92 5952.16 2352.04H5888.8C5888.8 2301 5872.08 2249.08 5808.72 2249.08ZM6112.84 2205.08V2424.2L6275.64 2205.08H6354.84L6209.64 2388.12L6359.24 2675H6280.92L6163.88 2440.92L6112.84 2507.8V2675H6045.96V2205.08H6112.84ZM6625.38 2418.92C6555.86 2459.4 6476.66 2464.68 6476.66 2555.32C6476.66 2596.68 6494.26 2627.48 6539.14 2627.48C6608.66 2627.48 6625.38 2580.84 6625.38 2532.44V2418.92ZM6485.46 2331.8H6425.62C6425.62 2235 6473.14 2192.76 6561.14 2192.76C6655.3 2192.76 6692.26 2249.08 6692.26 2312.44V2589.64C6692.26 2611.64 6700.18 2627.48 6717.78 2627.48C6722.18 2627.48 6729.22 2626.6 6732.74 2625.72V2675C6728.34 2677.64 6716.9 2680.28 6705.46 2680.28C6664.98 2680.28 6643.86 2675 6633.3 2611.64H6631.54C6615.7 2653 6572.58 2687.32 6527.7 2687.32C6445.86 2687.32 6407.14 2643.32 6407.14 2557.96C6407.14 2474.36 6442.34 2444.44 6524.18 2412.76C6554.98 2401.32 6600.74 2381.08 6607.78 2377.56C6624.5 2369.64 6625.38 2345.88 6625.38 2322.12C6625.38 2268.44 6607.78 2249.08 6554.1 2249.08C6503.94 2249.08 6485.46 2277.24 6485.46 2331.8ZM7022.78 2420.68V2261.4H6949.74C6887.26 2261.4 6867.02 2288.68 6867.02 2341.48C6867.02 2392.52 6889.02 2420.68 6947.1 2420.68H7022.78ZM7022.78 2477H6950.62L6854.7 2675H6781.66L6881.98 2469.96C6830.06 2450.6 6797.5 2400.44 6797.5 2338.84C6797.5 2257.88 6852.06 2205.08 6927.74 2205.08H7089.66V2675H7022.78V2477ZM4367.6 3105.08H4471.44L4556.8 3414.84C4562.96 3436.84 4568.24 3478.2 4573.52 3509.88H4574.4C4579.68 3478.2 4583.2 3440.36 4590.24 3414.84L4675.6 3105.08H4779.44V3575H4715.2V3161.4H4714.32L4595.52 3575H4550.64L4432.72 3161.4H4431.84V3575H4367.6V3105.08ZM5094.83 3318.92C5025.31 3359.4 4946.11 3364.68 4946.11 3455.32C4946.11 3496.68 4963.71 3527.48 5008.59 3527.48C5078.11 3527.48 5094.83 3480.84 5094.83 3432.44V3318.92ZM4954.91 3231.8H4895.07C4895.07 3135 4942.59 3092.76 5030.59 3092.76C5124.75 3092.76 5161.71 3149.08 5161.71 3212.44V3489.64C5161.71 3511.64 5169.63 3527.48 5187.23 3527.48C5191.63 3527.48 5198.67 3526.6 5202.19 3525.72V3575C5197.79 3577.64 5186.35 3580.28 5174.91 3580.28C5134.43 3580.28 5113.31 3575 5102.75 3511.64H5100.99C5085.15 3553 5042.03 3587.32 4997.15 3587.32C4915.31 3587.32 4876.59 3543.32 4876.59 3457.96C4876.59 3374.36 4911.79 3344.44 4993.63 3312.76C5024.43 3301.32 5070.19 3281.08 5077.23 3277.56C5093.95 3269.64 5094.83 3245.88 5094.83 3222.12C5094.83 3168.44 5077.23 3149.08 5023.55 3149.08C4973.39 3149.08 4954.91 3177.24 4954.91 3231.8ZM5351.43 3105.08V3299.56H5517.75V3105.08H5584.63V3575H5517.75V3355.88H5351.43V3575H5284.55V3105.08H5351.43ZM5659.83 3105.08H5729.35L5840.23 3479.96H5841.99L5945.83 3105.08H6015.35L5869.27 3577.64C5842.87 3663.88 5819.11 3735.16 5724.95 3735.16C5709.11 3735.16 5693.27 3732.52 5677.43 3727.24V3668.28C5692.39 3675.32 5710.87 3678.84 5726.71 3678.84C5774.23 3678.84 5793.59 3636.6 5809.43 3582.92L5659.83 3105.08ZM6314.39 2941.4H6381.27V3157.88C6402.39 3113.88 6439.35 3092.76 6477.19 3092.76C6595.99 3092.76 6632.07 3202.76 6632.07 3331.24C6632.07 3466.76 6599.51 3587.32 6480.71 3587.32C6433.19 3587.32 6406.79 3563.56 6381.27 3525.72V3735.16H6314.39V3525.72C6288.87 3563.56 6261.59 3587.32 6214.07 3587.32C6088.23 3587.32 6063.59 3466.76 6063.59 3331.24C6063.59 3202.76 6098.79 3092.76 6217.59 3092.76C6255.43 3092.76 6293.27 3113 6314.39 3157V2941.4ZM6221.99 3149.08C6140.15 3149.08 6133.11 3257.32 6133.11 3339.16C6133.11 3428.92 6138.39 3531 6222.87 3531C6292.39 3531 6314.39 3458.84 6314.39 3332.12C6314.39 3270.52 6307.35 3149.08 6221.99 3149.08ZM6470.15 3149.08C6388.31 3149.08 6381.27 3257.32 6381.27 3339.16C6381.27 3428.92 6386.55 3531 6471.03 3531C6540.55 3531 6562.55 3458.84 6562.55 3332.12C6562.55 3270.52 6555.51 3149.08 6470.15 3149.08ZM6929.6 3318.92C6860.08 3359.4 6780.88 3364.68 6780.88 3455.32C6780.88 3496.68 6798.48 3527.48 6843.36 3527.48C6912.88 3527.48 6929.6 3480.84 6929.6 3432.44V3318.92ZM6789.68 3231.8H6729.84C6729.84 3135 6777.36 3092.76 6865.36 3092.76C6959.52 3092.76 6996.48 3149.08 6996.48 3212.44V3489.64C6996.48 3511.64 7004.4 3527.48 7022 3527.48C7026.4 3527.48 7033.44 3526.6 7036.96 3525.72V3575C7032.56 3577.64 7021.12 3580.28 7009.68 3580.28C6969.2 3580.28 6948.08 3575 6937.52 3511.64H6935.76C6919.92 3553 6876.8 3587.32 6831.92 3587.32C6750.08 3587.32 6711.36 3543.32 6711.36 3457.96C6711.36 3374.36 6746.56 3344.44 6828.4 3312.76C6859.2 3301.32 6904.96 3281.08 6912 3277.56C6928.72 3269.64 6929.6 3245.88 6929.6 3222.12C6929.6 3168.44 6912 3149.08 6858.32 3149.08C6808.16 3149.08 6789.68 3177.24 6789.68 3231.8ZM7186.2 3105.08V3324.2L7349 3105.08H7428.2L7283 3288.12L7432.6 3575H7354.28L7237.24 3340.92L7186.2 3407.8V3575H7119.32V3105.08H7186.2ZM7647.7 3575H7580.82V3161.4H7457.62V3105.08H7770.02V3161.4H7647.7V3575ZM7808.26 3105.08H7877.78L7988.66 3479.96H7990.42L8094.26 3105.08H8163.78L8017.7 3577.64C7991.3 3663.88 7967.54 3735.16 7873.38 3735.16C7857.54 3735.16 7841.7 3732.52 7825.86 3727.24V3668.28C7840.82 3675.32 7859.3 3678.84 7875.14 3678.84C7922.66 3678.84 7942.02 3636.6 7957.86 3582.92L7808.26 3105.08ZM8385.39 3149.08C8303.55 3149.08 8296.51 3257.32 8296.51 3339.16C8296.51 3428.92 8301.79 3531 8386.27 3531C8455.79 3531 8477.79 3458.84 8477.79 3332.12C8477.79 3270.52 8470.75 3149.08 8385.39 3149.08ZM8296.51 3105.08V3157.88H8297.39C8318.51 3113.88 8360.75 3092.76 8393.31 3092.76C8512.11 3092.76 8547.31 3201 8547.31 3332.12C8547.31 3474.68 8515.63 3587.32 8397.71 3587.32C8350.19 3587.32 8322.03 3564.44 8296.51 3526.6V3738.68H8229.63V3105.08H8296.51ZM8845.14 3318.92C8775.62 3359.4 8696.42 3364.68 8696.42 3455.32C8696.42 3496.68 8714.02 3527.48 8758.9 3527.48C8828.42 3527.48 8845.14 3480.84 8845.14 3432.44V3318.92ZM8705.22 3231.8H8645.38C8645.38 3135 8692.9 3092.76 8780.9 3092.76C8875.06 3092.76 8912.02 3149.08 8912.02 3212.44V3489.64C8912.02 3511.64 8919.94 3527.48 8937.54 3527.48C8941.94 3527.48 8948.98 3526.6 8952.5 3525.72V3575C8948.1 3577.64 8936.66 3580.28 8925.22 3580.28C8884.74 3580.28 8863.62 3575 8853.06 3511.64H8851.3C8835.46 3553 8792.34 3587.32 8747.46 3587.32C8665.62 3587.32 8626.9 3543.32 8626.9 3457.96C8626.9 3374.36 8662.1 3344.44 8743.94 3312.76C8774.74 3301.32 8820.5 3281.08 8827.54 3277.56C8844.26 3269.64 8845.14 3245.88 8845.14 3222.12C8845.14 3168.44 8827.54 3149.08 8773.86 3149.08C8723.7 3149.08 8705.22 3177.24 8705.22 3231.8Z" fill="white"/>
<defs>
<linearGradient id="paint0_linear_235_7" x1="859" y1="1890" x2="859" y2="3601" gradientUnits="userSpaceOnUse">
<stop offset="0.15276" stop-color="#CB9D5E"/>
<stop offset="1" stop-color="#965724"/>
</linearGradient>
<linearGradient id="paint1_linear_235_7" x1="223" y1="1877.62" x2="223" y2="3601" gradientUnits="userSpaceOnUse">
<stop offset="0.15276" stop-color="#CB9D5E"/>
<stop offset="1" stop-color="#965724"/>
</linearGradient>
<linearGradient id="paint2_linear_235_7" x1="223" y1="1890" x2="223.5" y2="3597.5" gradientUnits="userSpaceOnUse">
<stop offset="0.15276" stop-color="#CB9D5E"/>
<stop offset="1" stop-color="#965724"/>
</linearGradient>
</defs>
</svg>
