<svg width="4749" height="7796" viewBox="0 0 4749 7796" fill="none" xmlns="http://www.w3.org/2000/svg">
<rect width="1081" height="1710" fill="#B31E34"/>
<rect x="1264" y="1086" width="1086" height="1697" transform="rotate(-90 1264 1086)" fill="#871538"/>
<rect x="1264" y="1710" width="452" height="1697" transform="rotate(-90 1264 1710)" fill="#871538"/>
<rect x="3151" width="446" height="1710" fill="#871538"/>
<rect x="636" y="1886" width="446" height="1711" fill="url(#paint0_linear_246_120)"/>
<rect y="3145" width="446" height="452" fill="url(#paint1_linear_246_120)"/>
<rect x="1264" y="3145" width="446" height="452" fill="#B3B3B2"/>
<rect x="1264" y="2516" width="446" height="452" fill="#B3B3B2"/>
<rect x="1264" y="1886" width="446" height="452" fill="#B3B3B2"/>
<rect x="1892" y="1886" width="446" height="1082" fill="#B3B3B2"/>
<rect x="2515" y="1886" width="1082" height="1082" fill="#B3B3B2"/>
<rect x="1892" y="3145" width="1705" height="452" fill="#B3B3B2"/>
<rect y="1886" width="446" height="1076" fill="url(#paint2_linear_246_120)"/>
<path d="M6.9 4238.8H46L123.28 4468.8L194.12 4238.8H232.76L141.68 4515.26C125.58 4564.48 106.72 4577.82 80.04 4577.82C65.32 4577.82 57.04 4575.98 51.98 4573.68V4540.56C57.96 4543.78 68.08 4544.7 76.36 4544.7C89.24 4544.7 97.06 4538.72 104.42 4513.42L6.9 4238.8ZM247.376 4324.36H404.236V4570H369.276V4353.8H282.336V4570H247.376V4324.36ZM550.261 4347.36C507.481 4347.36 503.801 4403.94 503.801 4446.72C503.801 4493.64 506.561 4547 550.721 4547C587.061 4547 598.561 4509.28 598.561 4443.04C598.561 4410.84 594.881 4347.36 550.261 4347.36ZM503.801 4324.36V4351.96H504.261C515.301 4328.96 537.381 4317.92 554.401 4317.92C616.501 4317.92 634.901 4374.5 634.901 4443.04C634.901 4517.56 618.341 4576.44 556.701 4576.44C531.861 4576.44 517.141 4564.48 503.801 4544.7V4655.56H468.841V4324.36H503.801ZM790.585 4436.14C754.245 4457.3 712.845 4460.06 712.845 4507.44C712.845 4529.06 722.045 4545.16 745.505 4545.16C781.845 4545.16 790.585 4520.78 790.585 4495.48V4436.14ZM717.445 4390.6H686.165C686.165 4340 711.005 4317.92 757.005 4317.92C806.225 4317.92 825.545 4347.36 825.545 4380.48V4525.38C825.545 4536.88 829.685 4545.16 838.885 4545.16C841.185 4545.16 844.865 4544.7 846.705 4544.24V4570C844.405 4571.38 838.425 4572.76 832.445 4572.76C811.285 4572.76 800.245 4570 794.725 4536.88H793.805C785.525 4558.5 762.985 4576.44 739.525 4576.44C696.745 4576.44 676.505 4553.44 676.505 4508.82C676.505 4465.12 694.905 4449.48 737.685 4432.92C753.785 4426.94 777.705 4416.36 781.385 4414.52C790.125 4410.38 790.585 4397.96 790.585 4385.54C790.585 4357.48 781.385 4347.36 753.325 4347.36C727.105 4347.36 717.445 4362.08 717.445 4390.6ZM924.719 4353.8V4426.02H961.519C988.199 4426.02 1000.16 4415.44 1000.16 4388.76C1000.16 4364.84 988.199 4353.8 962.899 4353.8H924.719ZM924.719 4455.46V4540.56H965.659C997.859 4540.56 1006.14 4526.76 1006.14 4497.78C1006.14 4469.26 991.419 4455.46 965.199 4455.46H924.719ZM889.759 4570V4324.36H969.339C1006.14 4324.36 1035.58 4346.9 1035.58 4382.78C1035.58 4414.52 1019.48 4435.22 997.399 4441.2V4442.12C1024.54 4448.56 1041.56 4469.26 1041.56 4503.3C1041.56 4545.62 1013.04 4570 980.839 4570H889.759ZM1110.65 4324.36H1255.55V4570H1220.59V4353.8H1144.23V4451.32C1144.23 4522.16 1135.03 4572.3 1090.87 4572.3C1081.67 4572.3 1077.07 4571.84 1069.71 4569.08V4541.48C1074.31 4542.4 1078.91 4542.86 1084.89 4542.86C1103.75 4542.86 1110.65 4527.68 1110.65 4448.56V4324.36ZM1428.67 4437.06V4353.8H1390.49C1357.83 4353.8 1347.25 4368.06 1347.25 4395.66C1347.25 4422.34 1358.75 4437.06 1389.11 4437.06H1428.67ZM1428.67 4466.5H1390.95L1340.81 4570H1302.63L1355.07 4462.82C1327.93 4452.7 1310.91 4426.48 1310.91 4394.28C1310.91 4351.96 1339.43 4324.36 1378.99 4324.36H1463.63V4570H1428.67V4466.5ZM1563.06 4324.36V4426.02H1605.38C1605.38 4361.16 1636.66 4317.92 1693.24 4317.92C1753.96 4317.92 1781.56 4364.38 1781.56 4438.9C1781.56 4545.16 1747.52 4576.44 1693.24 4576.44C1643.56 4576.44 1605.38 4547 1605.38 4455.46H1563.06V4570H1528.1V4324.36H1563.06ZM1693.24 4347.36C1657.82 4347.36 1641.72 4375.42 1641.72 4449.94C1641.72 4507.9 1652.76 4547 1693.24 4547C1735.1 4547 1745.22 4507.9 1745.22 4449.94C1745.22 4375.42 1730.04 4347.36 1693.24 4347.36ZM1871.67 4324.36V4540.56H1951.71V4324.36H1986.67V4540.56H2066.71V4324.36H2101.67V4540.56H2125.59V4636.7H2093.39V4570H1836.71V4324.36H1871.67ZM2267.17 4436.14C2230.83 4457.3 2189.43 4460.06 2189.43 4507.44C2189.43 4529.06 2198.63 4545.16 2222.09 4545.16C2258.43 4545.16 2267.17 4520.78 2267.17 4495.48V4436.14ZM2194.03 4390.6H2162.75C2162.75 4340 2187.59 4317.92 2233.59 4317.92C2282.81 4317.92 2302.13 4347.36 2302.13 4380.48V4525.38C2302.13 4536.88 2306.27 4545.16 2315.47 4545.16C2317.77 4545.16 2321.45 4544.7 2323.29 4544.24V4570C2320.99 4571.38 2315.01 4572.76 2309.03 4572.76C2287.87 4572.76 2276.83 4570 2271.31 4536.88H2270.39C2262.11 4558.5 2239.57 4576.44 2216.11 4576.44C2173.33 4576.44 2153.09 4553.44 2153.09 4508.82C2153.09 4465.12 2171.49 4449.48 2214.27 4432.92C2230.37 4426.94 2254.29 4416.36 2257.97 4414.52C2266.71 4410.38 2267.17 4397.96 2267.17 4385.54C2267.17 4357.48 2257.97 4347.36 2229.91 4347.36C2203.69 4347.36 2194.03 4362.08 2194.03 4390.6ZM2474.9 4437.06V4353.8H2436.72C2404.06 4353.8 2393.48 4368.06 2393.48 4395.66C2393.48 4422.34 2404.98 4437.06 2435.34 4437.06H2474.9ZM2474.9 4466.5H2437.18L2387.04 4570H2348.86L2401.3 4462.82C2374.16 4452.7 2357.14 4426.48 2357.14 4394.28C2357.14 4351.96 2385.66 4324.36 2425.22 4324.36H2509.86V4570H2474.9V4466.5ZM2719.8 4324.36V4438.9L2804.9 4324.36H2846.3L2770.4 4420.04L2848.6 4570H2807.66L2746.48 4447.64L2719.8 4482.6V4570H2684.84V4324.36H2719.8ZM2959.36 4317.92C3020.08 4317.92 3047.22 4364.38 3047.22 4446.72C3047.22 4547 3013.18 4576.44 2959.36 4576.44C2906.46 4576.44 2871.5 4547 2871.5 4446.26C2871.5 4364.38 2898.64 4317.92 2959.36 4317.92ZM2959.36 4347.36C2922.1 4347.36 2907.84 4375.42 2907.84 4449.94C2907.84 4507.9 2918.88 4547 2959.36 4547C3000.76 4547 3010.88 4507.9 3010.88 4449.94C3010.88 4375.42 2996.16 4347.36 2959.36 4347.36ZM3102.61 4324.36H3156.89L3201.51 4486.28C3204.73 4497.78 3207.49 4519.4 3210.25 4535.96H3210.71C3213.47 4519.4 3215.31 4499.62 3218.99 4486.28L3263.61 4324.36H3317.89V4570H3284.31V4353.8H3283.85L3221.75 4570H3198.29L3136.65 4353.8H3136.19V4570H3102.61V4324.36ZM3382.47 4324.36H3539.33V4570H3504.37V4353.8H3417.43V4570H3382.47V4324.36ZM3704.22 4436.14C3667.88 4457.3 3626.48 4460.06 3626.48 4507.44C3626.48 4529.06 3635.68 4545.16 3659.14 4545.16C3695.48 4545.16 3704.22 4520.78 3704.22 4495.48V4436.14ZM3631.08 4390.6H3599.8C3599.8 4340 3624.64 4317.92 3670.64 4317.92C3719.86 4317.92 3739.18 4347.36 3739.18 4380.48V4525.38C3739.18 4536.88 3743.32 4545.16 3752.52 4545.16C3754.82 4545.16 3758.5 4544.7 3760.34 4544.24V4570C3758.04 4571.38 3752.06 4572.76 3746.08 4572.76C3724.92 4572.76 3713.88 4570 3708.36 4536.88H3707.44C3699.16 4558.5 3676.62 4576.44 3653.16 4576.44C3610.38 4576.44 3590.14 4553.44 3590.14 4508.82C3590.14 4465.12 3608.54 4449.48 3651.32 4432.92C3667.42 4426.94 3691.34 4416.36 3695.02 4414.52C3703.76 4410.38 3704.22 4397.96 3704.22 4385.54C3704.22 4357.48 3695.02 4347.36 3666.96 4347.36C3640.74 4347.36 3631.08 4362.08 3631.08 4390.6ZM3838.35 4324.36V4426.02H3925.29V4324.36H3960.25V4570H3925.29V4455.46H3838.35V4570H3803.39V4324.36H3838.35ZM4024.86 4324.36H4059.82V4511.12C4059.82 4519.86 4057.98 4531.82 4056.14 4540.56H4056.6C4058.9 4529.06 4061.66 4516.64 4063.96 4511.12L4145.38 4324.36H4187.7V4570H4152.74V4383.7C4152.74 4376.8 4155.04 4361.16 4156.42 4353.34H4155.96C4154.58 4361.62 4150.44 4380.02 4148.6 4383.7L4067.18 4570H4024.86V4324.36ZM4360.72 4437.06V4353.8H4322.54C4289.88 4353.8 4279.3 4368.06 4279.3 4395.66C4279.3 4422.34 4290.8 4437.06 4321.16 4437.06H4360.72ZM4360.72 4466.5H4323L4272.86 4570H4234.68L4287.12 4462.82C4259.98 4452.7 4242.96 4426.48 4242.96 4394.28C4242.96 4351.96 4271.48 4324.36 4311.04 4324.36H4395.68V4570H4360.72V4466.5Z" fill="#BF883D"/>
<path d="M13.2 5826L193.6 5192.4H286.88L464.64 5826H387.2L337.04 5643.84H137.28L90.64 5826H13.2ZM321.2 5580.48L239.36 5243.44H237.6L154 5580.48H321.2ZM565.813 5356.08H843.013V5826H776.133V5412.4H630.053V5598.96C630.053 5734.48 612.453 5830.4 527.973 5830.4C510.373 5830.4 501.573 5829.52 487.493 5824.24V5771.44C496.293 5773.2 505.093 5774.08 516.533 5774.08C552.613 5774.08 565.813 5745.04 565.813 5593.68V5356.08ZM1018.44 5550.56H1176.84C1176.84 5479.28 1167.16 5400.08 1100.28 5400.08C1026.36 5400.08 1018.44 5488.08 1018.44 5550.56ZM1179.48 5669.36H1246.36C1246.36 5761.76 1203.24 5838.32 1104.68 5838.32C1006.12 5838.32 948.922 5779.36 948.922 5590.16C948.922 5472.24 975.322 5343.76 1099.4 5343.76C1232.28 5343.76 1246.36 5482.8 1246.36 5606.88H1018.44C1018.44 5714.24 1024.6 5782 1102.92 5782C1167.16 5782 1179.48 5723.04 1179.48 5669.36ZM1419.26 5356.08V5575.2L1582.06 5356.08H1661.26L1516.06 5539.12L1665.66 5826H1587.34L1470.3 5591.92L1419.26 5658.8V5826H1352.38V5356.08H1419.26ZM1871.39 5400.08C1791.31 5400.08 1778.99 5499.52 1778.99 5597.2C1778.99 5673.76 1783.39 5782 1868.75 5782C1940.91 5782 1947.95 5719.52 1951.47 5662.32H2014.83C2014.83 5751.2 1977.87 5838.32 1873.15 5838.32C1729.71 5838.32 1709.47 5718.64 1709.47 5597.2C1709.47 5473.12 1737.63 5343.76 1872.27 5343.76C1966.43 5343.76 2014.83 5415.92 2014.83 5503.04H1951.47C1951.47 5452 1934.75 5400.08 1871.39 5400.08ZM2300.47 5569.92C2230.95 5610.4 2151.75 5615.68 2151.75 5706.32C2151.75 5747.68 2169.35 5778.48 2214.23 5778.48C2283.75 5778.48 2300.47 5731.84 2300.47 5683.44V5569.92ZM2160.55 5482.8H2100.71C2100.71 5386 2148.23 5343.76 2236.23 5343.76C2330.39 5343.76 2367.35 5400.08 2367.35 5463.44V5740.64C2367.35 5762.64 2375.27 5778.48 2392.87 5778.48C2397.27 5778.48 2404.31 5777.6 2407.83 5776.72V5826C2403.43 5828.64 2391.99 5831.28 2380.55 5831.28C2340.07 5831.28 2318.95 5826 2308.39 5762.64H2306.63C2290.79 5804 2247.67 5838.32 2202.79 5838.32C2120.95 5838.32 2082.23 5794.32 2082.23 5708.96C2082.23 5625.36 2117.43 5595.44 2199.27 5563.76C2230.07 5552.32 2275.83 5532.08 2282.87 5528.56C2299.59 5520.64 2300.47 5496.88 2300.47 5473.12C2300.47 5419.44 2282.87 5400.08 2229.19 5400.08C2179.03 5400.08 2160.55 5428.24 2160.55 5482.8ZM2557.07 5356.08V5550.56H2723.39V5356.08H2790.27V5826H2723.39V5606.88H2557.07V5826H2490.19V5356.08H2557.07ZM2910.35 5769.68C2952.59 5681.68 2965.79 5629.76 2965.79 5510.96V5356.08H3222.75V5769.68H3267.63V5953.6H3206.03V5826H2931.47V5953.6H2869.87V5769.68H2910.35ZM3155.87 5769.68V5412.4H3030.03V5547.04C3030.03 5642.96 3015.07 5692.24 2978.99 5769.68H3155.87ZM3502.75 5400.08C3420.91 5400.08 3413.87 5508.32 3413.87 5590.16C3413.87 5679.92 3419.15 5782 3503.63 5782C3573.15 5782 3595.15 5709.84 3595.15 5583.12C3595.15 5521.52 3588.11 5400.08 3502.75 5400.08ZM3413.87 5356.08V5408.88H3414.75C3435.87 5364.88 3478.11 5343.76 3510.67 5343.76C3629.47 5343.76 3664.67 5452 3664.67 5583.12C3664.67 5725.68 3632.99 5838.32 3515.07 5838.32C3467.55 5838.32 3439.39 5815.44 3413.87 5777.6V5989.68H3346.99V5356.08H3413.87ZM3921.14 5343.76C4037.3 5343.76 4089.22 5432.64 4089.22 5590.16C4089.22 5782 4024.1 5838.32 3921.14 5838.32C3819.94 5838.32 3753.06 5782 3753.06 5589.28C3753.06 5432.64 3804.98 5343.76 3921.14 5343.76ZM3921.14 5400.08C3849.86 5400.08 3822.58 5453.76 3822.58 5596.32C3822.58 5707.2 3843.7 5782 3921.14 5782C4000.34 5782 4019.7 5707.2 4019.7 5596.32C4019.7 5453.76 3991.54 5400.08 3921.14 5400.08ZM4170.55 5581.36H4390.55V5641.2H4170.55V5581.36ZM136.4 6092.4V6361.68H378.4V6092.4H448.8V6726H378.4V6425.04H136.4V6726H66V6092.4H136.4ZM628.286 6450.56H786.686C786.686 6379.28 777.006 6300.08 710.126 6300.08C636.206 6300.08 628.286 6388.08 628.286 6450.56ZM789.326 6569.36H856.206C856.206 6661.76 813.086 6738.32 714.526 6738.32C615.966 6738.32 558.766 6679.36 558.766 6490.16C558.766 6372.24 585.166 6243.76 709.246 6243.76C842.126 6243.76 856.206 6382.8 856.206 6506.88H628.286C628.286 6614.24 634.446 6682 712.766 6682C777.006 6682 789.326 6623.04 789.326 6569.36ZM1029.11 6312.4V6450.56H1099.51C1150.55 6450.56 1173.43 6430.32 1173.43 6379.28C1173.43 6333.52 1150.55 6312.4 1102.15 6312.4H1029.11ZM1029.11 6506.88V6669.68H1107.43C1169.03 6669.68 1184.87 6643.28 1184.87 6587.84C1184.87 6533.28 1156.71 6506.88 1106.55 6506.88H1029.11ZM962.225 6726V6256.08H1114.47C1184.87 6256.08 1241.19 6299.2 1241.19 6367.84C1241.19 6428.56 1210.39 6468.16 1168.15 6479.6V6481.36C1220.07 6493.68 1252.63 6533.28 1252.63 6598.4C1252.63 6679.36 1198.07 6726 1136.47 6726H962.225ZM1502.72 6300.08C1422.64 6300.08 1410.32 6399.52 1410.32 6497.2C1410.32 6573.76 1414.72 6682 1500.08 6682C1572.24 6682 1579.28 6619.52 1582.8 6562.32H1646.16C1646.16 6651.2 1609.2 6738.32 1504.48 6738.32C1361.04 6738.32 1340.8 6618.64 1340.8 6497.2C1340.8 6373.12 1368.96 6243.76 1503.6 6243.76C1597.76 6243.76 1646.16 6315.92 1646.16 6403.04H1582.8C1582.8 6352 1566.08 6300.08 1502.72 6300.08ZM1806.84 6256.08V6475.2L1969.64 6256.08H2048.84L1903.64 6439.12L2053.24 6726H1974.92L1857.88 6491.92L1806.84 6558.8V6726H1739.96V6256.08H1806.84ZM2319.38 6469.92C2249.86 6510.4 2170.66 6515.68 2170.66 6606.32C2170.66 6647.68 2188.26 6678.48 2233.14 6678.48C2302.66 6678.48 2319.38 6631.84 2319.38 6583.44V6469.92ZM2179.46 6382.8H2119.62C2119.62 6286 2167.14 6243.76 2255.14 6243.76C2349.3 6243.76 2386.26 6300.08 2386.26 6363.44V6640.64C2386.26 6662.64 2394.18 6678.48 2411.78 6678.48C2416.18 6678.48 2423.22 6677.6 2426.74 6676.72V6726C2422.34 6728.64 2410.9 6731.28 2399.46 6731.28C2358.98 6731.28 2337.86 6726 2327.3 6662.64H2325.54C2309.7 6704 2266.58 6738.32 2221.7 6738.32C2139.86 6738.32 2101.14 6694.32 2101.14 6608.96C2101.14 6525.36 2136.34 6495.44 2218.18 6463.76C2248.98 6452.32 2294.74 6432.08 2301.78 6428.56C2318.5 6420.64 2319.38 6396.88 2319.38 6373.12C2319.38 6319.44 2301.78 6300.08 2248.1 6300.08C2197.94 6300.08 2179.46 6328.24 2179.46 6382.8ZM2716.78 6471.68V6312.4H2643.74C2581.26 6312.4 2561.02 6339.68 2561.02 6392.48C2561.02 6443.52 2583.02 6471.68 2641.1 6471.68H2716.78ZM2716.78 6528H2644.62L2548.7 6726H2475.66L2575.98 6520.96C2524.06 6501.6 2491.5 6451.44 2491.5 6389.84C2491.5 6308.88 2546.06 6256.08 2621.74 6256.08H2783.66V6726H2716.78V6528ZM61.6 7156.08H165.44L250.8 7465.84C256.96 7487.84 262.24 7529.2 267.52 7560.88H268.4C273.68 7529.2 277.2 7491.36 284.24 7465.84L369.6 7156.08H473.44V7626H409.2V7212.4H408.32L289.52 7626H244.64L126.72 7212.4H125.84V7626H61.6V7156.08ZM788.831 7369.92C719.311 7410.4 640.111 7415.68 640.111 7506.32C640.111 7547.68 657.711 7578.48 702.591 7578.48C772.111 7578.48 788.831 7531.84 788.831 7483.44V7369.92ZM648.911 7282.8H589.071C589.071 7186 636.591 7143.76 724.591 7143.76C818.751 7143.76 855.711 7200.08 855.711 7263.44V7540.64C855.711 7562.64 863.631 7578.48 881.231 7578.48C885.631 7578.48 892.671 7577.6 896.191 7576.72V7626C891.791 7628.64 880.351 7631.28 868.911 7631.28C828.431 7631.28 807.311 7626 796.751 7562.64H794.991C779.151 7604 736.031 7638.32 691.151 7638.32C609.311 7638.32 570.591 7594.32 570.591 7508.96C570.591 7425.36 605.791 7395.44 687.631 7363.76C718.431 7352.32 764.191 7332.08 771.231 7328.56C787.951 7320.64 788.831 7296.88 788.831 7273.12C788.831 7219.44 771.231 7200.08 717.551 7200.08C667.391 7200.08 648.911 7228.24 648.911 7282.8ZM1045.43 7156.08V7350.56H1211.75V7156.08H1278.63V7626H1211.75V7406.88H1045.43V7626H978.553V7156.08H1045.43ZM1353.83 7156.08H1423.35L1534.23 7530.96H1535.99L1639.83 7156.08H1709.35L1563.27 7628.64C1536.87 7714.88 1513.11 7786.16 1418.95 7786.16C1403.11 7786.16 1387.27 7783.52 1371.43 7778.24V7719.28C1386.39 7726.32 1404.87 7729.84 1420.71 7729.84C1468.23 7729.84 1487.59 7687.6 1503.43 7633.92L1353.83 7156.08ZM2008.39 6992.4H2075.27V7208.88C2096.39 7164.88 2133.35 7143.76 2171.19 7143.76C2289.99 7143.76 2326.07 7253.76 2326.07 7382.24C2326.07 7517.76 2293.51 7638.32 2174.71 7638.32C2127.19 7638.32 2100.79 7614.56 2075.27 7576.72V7786.16H2008.39V7576.72C1982.87 7614.56 1955.59 7638.32 1908.07 7638.32C1782.23 7638.32 1757.59 7517.76 1757.59 7382.24C1757.59 7253.76 1792.79 7143.76 1911.59 7143.76C1949.43 7143.76 1987.27 7164 2008.39 7208V6992.4ZM1915.99 7200.08C1834.15 7200.08 1827.11 7308.32 1827.11 7390.16C1827.11 7479.92 1832.39 7582 1916.87 7582C1986.39 7582 2008.39 7509.84 2008.39 7383.12C2008.39 7321.52 2001.35 7200.08 1915.99 7200.08ZM2164.15 7200.08C2082.31 7200.08 2075.27 7308.32 2075.27 7390.16C2075.27 7479.92 2080.55 7582 2165.03 7582C2234.55 7582 2256.55 7509.84 2256.55 7383.12C2256.55 7321.52 2249.51 7200.08 2164.15 7200.08ZM2623.6 7369.92C2554.08 7410.4 2474.88 7415.68 2474.88 7506.32C2474.88 7547.68 2492.48 7578.48 2537.36 7578.48C2606.88 7578.48 2623.6 7531.84 2623.6 7483.44V7369.92ZM2483.68 7282.8H2423.84C2423.84 7186 2471.36 7143.76 2559.36 7143.76C2653.52 7143.76 2690.48 7200.08 2690.48 7263.44V7540.64C2690.48 7562.64 2698.4 7578.48 2716 7578.48C2720.4 7578.48 2727.44 7577.6 2730.96 7576.72V7626C2726.56 7628.64 2715.12 7631.28 2703.68 7631.28C2663.2 7631.28 2642.08 7626 2631.52 7562.64H2629.76C2613.92 7604 2570.8 7638.32 2525.92 7638.32C2444.08 7638.32 2405.36 7594.32 2405.36 7508.96C2405.36 7425.36 2440.56 7395.44 2522.4 7363.76C2553.2 7352.32 2598.96 7332.08 2606 7328.56C2622.72 7320.64 2623.6 7296.88 2623.6 7273.12C2623.6 7219.44 2606 7200.08 2552.32 7200.08C2502.16 7200.08 2483.68 7228.24 2483.68 7282.8ZM2880.2 7156.08V7375.2L3043 7156.08H3122.2L2977 7339.12L3126.6 7626H3048.28L2931.24 7391.92L2880.2 7458.8V7626H2813.32V7156.08H2880.2ZM3341.7 7626H3274.82V7212.4H3151.62V7156.08H3464.02V7212.4H3341.7V7626ZM3502.26 7156.08H3571.78L3682.66 7530.96H3684.42L3788.26 7156.08H3857.78L3711.7 7628.64C3685.3 7714.88 3661.54 7786.16 3567.38 7786.16C3551.54 7786.16 3535.7 7783.52 3519.86 7778.24V7719.28C3534.82 7726.32 3553.3 7729.84 3569.14 7729.84C3616.66 7729.84 3636.02 7687.6 3651.86 7633.92L3502.26 7156.08ZM4079.39 7200.08C3997.55 7200.08 3990.51 7308.32 3990.51 7390.16C3990.51 7479.92 3995.79 7582 4080.27 7582C4149.79 7582 4171.79 7509.84 4171.79 7383.12C4171.79 7321.52 4164.75 7200.08 4079.39 7200.08ZM3990.51 7156.08V7208.88H3991.39C4012.51 7164.88 4054.75 7143.76 4087.31 7143.76C4206.11 7143.76 4241.31 7252 4241.31 7383.12C4241.31 7525.68 4209.63 7638.32 4091.71 7638.32C4044.19 7638.32 4016.03 7615.44 3990.51 7577.6V7789.68H3923.63V7156.08H3990.51ZM4539.14 7369.92C4469.62 7410.4 4390.42 7415.68 4390.42 7506.32C4390.42 7547.68 4408.02 7578.48 4452.9 7578.48C4522.42 7578.48 4539.14 7531.84 4539.14 7483.44V7369.92ZM4399.22 7282.8H4339.38C4339.38 7186 4386.9 7143.76 4474.9 7143.76C4569.06 7143.76 4606.02 7200.08 4606.02 7263.44V7540.64C4606.02 7562.64 4613.94 7578.48 4631.54 7578.48C4635.94 7578.48 4642.98 7577.6 4646.5 7576.72V7626C4642.1 7628.64 4630.66 7631.28 4619.22 7631.28C4578.74 7631.28 4557.62 7626 4547.06 7562.64H4545.3C4529.46 7604 4486.34 7638.32 4441.46 7638.32C4359.62 7638.32 4320.9 7594.32 4320.9 7508.96C4320.9 7425.36 4356.1 7395.44 4437.94 7363.76C4468.74 7352.32 4514.5 7332.08 4521.54 7328.56C4538.26 7320.64 4539.14 7296.88 4539.14 7273.12C4539.14 7219.44 4521.54 7200.08 4467.86 7200.08C4417.7 7200.08 4399.22 7228.24 4399.22 7282.8Z" fill="#BF883D"/>
<defs>
<linearGradient id="paint0_linear_246_120" x1="859" y1="1886" x2="859" y2="3597" gradientUnits="userSpaceOnUse">
<stop offset="0.15276" stop-color="#CB9D5E"/>
<stop offset="1" stop-color="#965724"/>
</linearGradient>
<linearGradient id="paint1_linear_246_120" x1="223" y1="1873.62" x2="223" y2="3597" gradientUnits="userSpaceOnUse">
<stop offset="0.15276" stop-color="#CB9D5E"/>
<stop offset="1" stop-color="#965724"/>
</linearGradient>
<linearGradient id="paint2_linear_246_120" x1="223" y1="1886" x2="223.5" y2="3593.5" gradientUnits="userSpaceOnUse">
<stop offset="0.15276" stop-color="#CB9D5E"/>
<stop offset="1" stop-color="#965724"/>
</linearGradient>
</defs>
</svg>
